<?xml version="1.0" encoding="utf-8"?>
<!-- Generator: Adobe Illustrator 22.0.0, SVG Export Plug-In . SVG Version: 6.00 Build 0)  -->
<svg version="1.1" xmlns="http://www.w3.org/2000/svg" xmlns:xlink="http://www.w3.org/1999/xlink" x="0px" y="0px"
	 viewBox="0 0 500 500" style="enable-background:new 0 0 500 500;" xml:space="preserve">
<style type="text/css">
	.st0{fill:#DA5A47;}
	.st1{fill:#FFFFFF;}
</style>
	<rect x="-1" y="-1" class="st0" width="501" height="501"/>
	<polygon class="st0" points="-1,500 -1,0 500,0 	"/>
		<path class="st1" d="M380,231.4c5.7,39.4-6.3,80.8-37,111.1c-45.4,44.8-115.4,50.3-166.9,16.7l36.1-35.2L79.6,305.5L98.1,435
			l40.5-38.8c72.7,53.6,175.8,48.5,241.9-16.7c38.3-37.8,55.8-88,53.6-137.5L380,231.4z M155.5,157.5
			c45.4-44.8,115.4-50.3,166.8-16.7L286.2,176l132.6,18.5L400.3,65l-40.4,38.9C287.1,50.2,184,55.3,117.9,120.5
			c-38.3,37.8-55.7,87.9-53.6,137.4l54.1,10.7C112.7,229.2,124.8,187.8,155.5,157.5z"/>
</svg>
